<svg xmlns="http://www.w3.org/2000/svg" fill="none" viewBox="0 0 1920 540" height="540" width="1920">
<mask height="398" width="337" y="71" x="198" maskUnits="userSpaceOnUse" style="mask-type:luminance" id="mask0_5_278">
<path fill="white" d="M198 71H535V468.778H198V71Z"></path>
</mask>
<g mask="url(#mask0_5_278)">
<mask height="398" width="336" y="71" x="198" maskUnits="userSpaceOnUse" style="mask-type:luminance" id="mask1_5_278">
<path fill="white" d="M266.461 169.267L224.999 84.9873C243.458 78.3267 262.464 74.0925 281.994 72.2847C301.548 70.453 320.982 71.1191 340.369 74.2353L331.282 161.75C322.814 160.608 314.322 160.275 305.782 160.751C292.223 161.488 279.116 164.343 266.461 169.267ZM457.975 131.54C443.37 118.124 427.266 106.824 409.71 97.6185C392.131 88.4127 373.672 81.6094 354.332 77.2325L345.246 164.224C364.014 168.72 380.618 177.355 395.081 190.105L457.975 131.54ZM524.938 241.558L435.282 257.757C439.802 275.693 441.586 293.891 440.587 312.35L532.241 331.975C535.523 301.36 533.073 271.245 524.938 241.558ZM431.072 244.127L520.751 227.904C517.564 218.626 513.805 209.563 509.452 200.762C498.367 179.139 484.57 159.395 468.061 141.554L405.167 200.12C416.656 213.108 425.291 227.761 431.072 244.127ZM420.867 258.97C415.681 239.322 406.213 222.028 392.464 207.089C386.922 201.404 380.832 196.409 374.195 192.056C367.558 187.726 360.541 184.182 353.096 181.399C345.674 178.616 338.038 176.665 330.188 175.571C322.338 174.477 314.464 174.239 306.567 174.881C295.339 175.595 284.444 177.854 273.835 181.637C263.249 185.395 253.378 190.581 244.243 197.146C233.562 204.211 224.476 212.941 216.982 223.36C247.264 237.752 278.878 248.052 311.824 254.284C347.957 261.016 384.281 262.586 420.867 258.97ZM315.368 324.22H274.977V362.328C274.953 364.588 274.097 366.419 272.36 367.87L213.723 415.565V468.659C233.777 466.494 252.069 459.619 268.602 448.035C316.011 411.854 315.725 377.885 315.368 334.805V324.22ZM425.767 320.818C427.384 304.762 426.814 288.8 424.054 272.91C410.424 274.266 396.793 275.098 383.163 275.098C358.305 275.122 333.637 272.815 309.207 268.224C274.644 261.754 241.531 250.906 209.822 235.73C197.81 258.899 198.095 275.241 198.452 295.151C198.523 299.909 198.666 304.809 198.595 310.019V324.22C198.595 325.171 198.785 326.075 199.142 326.932C199.498 327.812 200.022 328.573 200.688 329.239C201.354 329.905 202.115 330.405 202.995 330.762C203.852 331.118 204.756 331.309 205.707 331.309C206.635 331.309 207.539 331.118 208.419 330.762C209.275 330.405 210.036 329.905 210.702 329.239C211.369 328.573 211.892 327.812 212.249 326.932C212.605 326.075 212.796 325.171 212.796 324.22V310.019H349.86C352.334 310.043 354.713 310.447 357.044 311.256C359.375 312.064 361.516 313.206 363.467 314.705C365.418 316.204 367.083 317.988 368.462 320.033C369.842 322.055 370.865 324.268 371.531 326.646C379.547 361.828 411.994 394.869 449.245 393.228L426.124 323.792C425.791 322.816 425.672 321.841 425.767 320.818Z"></path>
</mask>
<g mask="url(#mask1_5_278)">
<path fill="url(#paint0_linear_5_278)" d="M198 70.4531V468.659H535.381V70.4531H198Z"></path>
</g>
</g>
<path fill="#1a1a2e" d="M717.77 194.273C717.77 197.249 717.132 199.886 715.899 202.267C714.624 204.648 712.838 206.688 710.457 208.389C708.076 210.09 705.057 211.45 701.443 212.471C697.914 213.406 693.96 213.831 689.538 213.831H646V141.721H689.198C698.127 141.721 704.93 143.422 709.607 146.823C714.241 150.225 716.58 154.774 716.58 160.429V161.449C716.58 163.278 716.282 165.106 715.729 166.892C715.134 168.592 714.199 170.208 712.838 171.654C711.562 173.142 709.989 174.46 708.076 175.565C706.248 176.586 704.079 177.394 701.613 177.946C704.419 178.286 706.885 179.052 708.926 180.157C711.052 181.305 712.753 182.623 714.028 184.069C715.389 185.557 716.324 187.088 716.92 188.661C717.472 190.277 717.77 191.85 717.77 193.423V194.273ZM703.654 162.98C703.654 160.174 702.634 157.793 700.593 155.837C698.552 153.924 695.023 152.946 690.048 152.946H659.436V173.184H689.368C694.343 173.184 697.957 172.249 700.253 170.293C702.506 168.252 703.654 165.956 703.654 163.32V162.98ZM703.654 192.572C703.654 191.212 703.357 189.979 702.804 188.831C702.209 187.598 701.358 186.535 700.253 185.6C699.105 184.707 697.617 184.026 695.831 183.559C694.003 183.006 691.834 182.708 689.368 182.708H659.436V202.947H690.048C692.429 202.947 694.47 202.734 696.171 202.267C697.957 201.714 699.402 200.991 700.423 200.056C701.528 199.163 702.336 198.1 702.804 196.824C703.357 195.591 703.654 194.273 703.654 192.913V192.572Z"></path>
<path fill="#1a1a2e" d="M792.187 188.831C792.187 192.7 791.337 196.229 789.636 199.375C787.935 202.564 785.597 205.285 782.663 207.539C779.687 209.835 776.285 211.578 772.459 212.811C768.717 214.044 764.806 214.682 760.724 214.682C756.642 214.682 752.645 214.044 748.819 212.811C745.077 211.578 741.718 209.835 738.785 207.539C735.808 205.285 733.427 202.564 731.642 199.375C729.941 196.229 729.091 192.7 729.091 188.831V187.3C729.091 183.474 729.941 179.945 731.642 176.756C733.427 173.61 735.808 170.888 738.785 168.592C741.718 166.339 745.077 164.596 748.819 163.32C752.645 162.087 756.642 161.449 760.724 161.449C764.806 161.449 768.717 162.087 772.459 163.32C776.285 164.596 779.687 166.339 782.663 168.592C785.597 170.888 787.935 173.61 789.636 176.756C791.337 179.945 792.187 183.474 792.187 187.3V188.831ZM779.262 187.64C779.262 185.259 778.836 183.006 778.071 180.838C777.263 178.712 776.03 176.883 774.33 175.395C772.714 173.822 770.758 172.589 768.377 171.654C766.081 170.761 763.53 170.293 760.724 170.293C757.748 170.293 755.111 170.761 752.73 171.654C750.435 172.589 748.521 173.822 746.948 175.395C745.332 176.883 744.099 178.712 743.206 180.838C742.399 183.006 742.016 185.259 742.016 187.64V188.661C742.016 191.042 742.399 193.338 743.206 195.464C744.099 197.505 745.332 199.333 746.948 200.906C748.521 202.522 750.435 203.755 752.73 204.648C755.111 205.455 757.748 205.838 760.724 205.838C763.53 205.838 766.081 205.455 768.377 204.648C770.758 203.755 772.714 202.522 774.33 200.906C776.03 199.333 777.263 197.505 778.071 195.464C778.836 193.338 779.262 191.042 779.262 188.661V187.64Z"></path>
<path fill="#1a1a2e" d="M848.261 176.926C847.113 176.161 845.795 175.353 844.35 174.545C842.989 173.78 841.459 173.099 839.758 172.504C838.142 171.824 836.441 171.314 834.656 170.973C832.827 170.548 830.999 170.293 829.213 170.293C824.536 170.293 820.965 170.931 818.499 172.164C815.99 173.312 814.757 174.715 814.757 176.416C814.757 178.244 815.778 179.562 817.819 180.327C819.859 181.135 822.411 181.815 825.472 182.368C828.618 182.836 832.02 183.346 835.676 183.899C839.29 184.367 842.649 185.174 845.71 186.28C848.772 187.3 851.323 188.831 853.364 190.872C855.489 192.828 856.595 195.421 856.595 198.695C856.595 200.651 856 202.564 854.894 204.477C853.746 206.306 852.045 208.006 849.792 209.58C847.624 211.068 844.86 212.301 841.459 213.321C838.142 214.214 834.231 214.682 829.724 214.682C824.026 214.682 818.712 213.874 813.737 212.301C808.847 210.6 804.553 208.177 800.812 204.988L808.125 198.525C811.271 200.693 814.757 202.437 818.499 203.797C822.24 205.158 826.237 205.838 830.574 205.838C835.081 205.838 838.567 205.328 840.948 204.307C843.414 203.202 844.69 201.544 844.69 199.375C844.69 197.59 843.584 196.229 841.459 195.294C839.418 194.401 836.867 193.72 833.805 193.253C830.744 192.7 827.385 192.19 823.771 191.722C820.242 191.297 816.968 190.532 813.907 189.511C810.846 188.491 808.295 187.088 806.254 185.259C804.213 183.346 803.193 180.753 803.193 177.436C803.193 175.523 803.703 173.61 804.723 171.654C805.829 169.74 807.487 168.04 809.655 166.552C811.781 165.106 814.417 163.915 817.479 162.98C820.625 161.96 824.196 161.449 828.193 161.449C834.316 161.449 839.46 162.3 843.669 164.001C847.836 165.616 851.875 167.827 855.745 170.633L848.261 176.926Z"></path>
<path fill="#1a1a2e" d="M888.02 171.654V198.355C888.02 201.204 888.615 203.967 889.891 206.689C891.251 209.41 893.165 211.791 895.673 213.832H880.537C878.581 212.131 877.178 210.005 876.285 207.369C875.477 204.648 875.095 201.671 875.095 198.355V171.654H864.04V163.15H875.095V154.307L888.02 149.885V163.15H901.626V171.654H888.02Z"></path>
<path fill="#1a1a2e" d="M973.103 188.831C973.103 192.7 972.253 196.229 970.552 199.375C968.851 202.564 966.513 205.285 963.579 207.539C960.603 209.835 957.202 211.578 953.375 212.811C949.633 214.044 945.722 214.682 941.64 214.682C937.558 214.682 933.562 214.044 929.735 212.811C925.994 211.578 922.635 209.835 919.701 207.539C916.725 205.285 914.344 202.564 912.558 199.375C910.857 196.229 910.007 192.7 910.007 188.831V187.3C910.007 183.474 910.857 179.945 912.558 176.756C914.344 173.61 916.725 170.888 919.701 168.592C922.635 166.339 925.994 164.596 929.735 163.32C933.562 162.087 937.558 161.449 941.64 161.449C945.722 161.449 949.633 162.087 953.375 163.32C957.202 164.596 960.603 166.339 963.579 168.592C966.513 170.888 968.851 173.61 970.552 176.756C972.253 179.945 973.103 183.474 973.103 187.3V188.831ZM960.178 187.64C960.178 185.259 959.753 183.006 958.987 180.838C958.18 178.712 956.946 176.883 955.246 175.395C953.63 173.822 951.674 172.589 949.293 171.654C946.997 170.761 944.446 170.293 941.64 170.293C938.664 170.293 936.028 170.761 933.647 171.654C931.351 172.589 929.437 173.822 927.864 175.395C926.249 176.883 925.016 178.712 924.123 180.838C923.315 183.006 922.932 185.259 922.932 187.64V188.661C922.932 191.042 923.315 193.338 924.123 195.464C925.016 197.505 926.249 199.333 927.864 200.906C929.437 202.522 931.351 203.755 933.647 204.648C936.028 205.455 938.664 205.838 941.64 205.838C944.446 205.838 946.997 205.455 949.293 204.648C951.674 203.755 953.63 202.522 955.246 200.906C956.946 199.333 958.18 197.505 958.987 195.464C959.753 193.338 960.178 191.042 960.178 188.661V187.64Z"></path>
<path fill="#1a1a2e" d="M1033.6 213.831V183.729C1033.6 179.434 1032.62 176.203 1030.71 174.035C1028.88 171.909 1025.78 170.803 1021.35 170.803C1018.97 170.803 1016.51 171.441 1014.04 172.674C1011.53 173.95 1009.28 175.65 1007.24 177.776C1005.2 179.817 1003.54 182.283 1002.31 185.089C1001.03 187.938 1000.44 190.872 1000.44 193.933V213.831H987.34V163.15H999.245V180.327C1002.65 173.78 1006.64 169.06 1011.32 166.211C1016.08 163.278 1021.27 161.79 1026.97 161.79C1030.03 161.79 1032.79 162.3 1035.3 163.32C1037.77 164.256 1039.81 165.616 1041.42 167.402C1043.12 169.23 1044.4 171.399 1045.33 173.865C1046.23 176.373 1046.69 179.052 1046.69 181.858V213.831H1033.6Z"></path>
<path fill="#1a1a2e" d="M1171.18 193.593C1171.18 197.122 1170.2 200.311 1168.29 203.117C1166.46 205.966 1163.91 208.389 1160.64 210.43C1157.45 212.386 1153.58 213.874 1149.07 215.022C1144.52 216.127 1139.59 216.723 1134.28 216.723C1126.88 216.723 1119.91 215.787 1113.36 214.001C1106.77 212.216 1100.65 210.005 1094.99 207.369L1099.92 196.654C1105.71 199.503 1111.53 201.714 1117.44 203.287C1123.31 204.903 1129.18 205.668 1134.96 205.668C1138.91 205.668 1142.27 205.413 1144.99 204.818C1147.8 204.137 1150.14 203.372 1151.96 202.437C1153.88 201.416 1155.28 200.311 1156.22 199.035C1157.11 197.675 1157.58 196.314 1157.58 194.953C1157.58 192.828 1156.64 191.042 1154.86 189.681C1153.16 188.321 1150.86 187.258 1148.05 186.45C1145.2 185.557 1141.97 184.834 1138.36 184.239C1134.7 183.559 1131.05 182.963 1127.3 182.368C1123.56 181.688 1119.82 180.965 1116.08 180.157C1112.42 179.264 1109.19 178.074 1106.39 176.586C1103.66 175.14 1101.37 173.312 1099.58 171.143C1097.88 168.89 1097.03 166.126 1097.03 162.81C1097.03 159.536 1097.88 156.432 1099.58 153.456C1101.37 150.522 1103.88 148.014 1107.07 145.973C1110.34 143.847 1114.29 142.146 1118.97 140.871C1123.61 139.638 1128.75 139 1134.45 139C1137.93 139 1141.42 139.34 1144.82 140.02C1148.22 140.616 1151.45 141.338 1154.52 142.231C1157.58 143.167 1160.38 144.272 1163.02 145.633C1165.61 146.908 1167.95 148.141 1169.99 149.374L1162.68 158.388C1160.98 157.368 1159.02 156.347 1156.9 155.327C1154.73 154.306 1152.39 153.456 1149.92 152.776C1147.42 152.01 1144.82 151.373 1142.1 150.905C1139.38 150.352 1136.66 150.055 1133.94 150.055C1130.41 150.055 1127.22 150.395 1124.41 151.075C1121.56 151.67 1119.14 152.436 1117.1 153.456C1115.06 154.391 1113.44 155.497 1112.34 156.857C1111.19 158.133 1110.64 159.536 1110.64 161.109C1110.64 163.065 1111.49 164.638 1113.19 165.871C1114.89 167.147 1117.14 168.167 1119.99 168.933C1122.93 169.74 1126.16 170.421 1129.69 170.973C1133.3 171.569 1137 172.249 1140.74 173.014C1144.57 173.695 1148.31 174.545 1151.96 175.565C1155.58 176.501 1158.81 177.734 1161.66 179.307C1164.47 180.795 1166.76 182.708 1168.46 185.089C1170.25 187.385 1171.18 190.191 1171.18 193.593Z"></path>
<path fill="#1a1a2e" d="M1252.76 213.831L1243.23 195.974H1200.89L1191.7 213.831H1177.42L1216.36 141.721H1227.59L1267.38 213.831H1252.76ZM1221.63 155.837L1205.99 186.11H1237.96L1221.63 155.837Z"></path>
<path fill="#1a1a2e" d="M1291.51 152.946V173.695H1329.26V184.409H1291.51V213.831H1278.07V141.721H1342.19V152.946H1291.51Z"></path>
<path fill="#1a1a2e" d="M1356.89 213.831V141.721H1422.37V152.946H1370.33V171.484H1410.29V182.368H1370.33V202.607H1422.37V213.831H1356.89Z"></path>
<path fill="#1a1a2e" d="M1478.85 152.946V213.831H1465.24V152.946H1433.78V141.721H1510.31V152.946H1478.85Z"></path>
<path fill="#1a1a2e" d="M1566.16 185.089V213.831H1552.55V184.749L1516.16 141.721H1532.15L1560.04 175.225L1586.23 141.721H1602.21L1566.16 185.089Z"></path>
<path fill="#1a1a2e" d="M696.978 378.741V281.291H785.415V296.597H715.175V321.597H769.258V336.394H715.175V363.605H785.415V378.741H696.978Z"></path>
<path fill="#1a1a2e" d="M866.467 400V368.367C863.066 371.896 858.857 374.744 853.882 376.87C848.865 378.911 843.423 379.932 837.555 379.932C831.985 379.932 826.926 378.996 822.419 377.211C817.869 375.297 813.958 372.789 810.684 369.727C807.368 366.581 804.816 362.882 803.031 358.673C801.202 354.506 800.31 350.127 800.31 345.577V343.366C800.31 338.732 801.33 334.31 803.371 330.101C805.412 325.934 808.133 322.193 811.534 318.876C815.021 315.602 819.06 313.009 823.609 311.053C828.116 309.14 832.878 308.162 837.895 308.162C845.463 308.162 851.926 309.65 857.283 312.583C862.598 315.56 866.34 319.854 868.508 325.509L871.399 310.373H883.134V400H866.467ZM865.447 344.047C865.447 340.9 864.852 337.839 863.746 334.863C862.726 331.929 861.11 329.378 858.984 327.21C856.943 324.956 854.392 323.213 851.331 321.937C848.355 320.577 845.038 319.897 841.297 319.897C834.154 319.897 828.414 322.022 824.12 326.189C819.783 330.398 817.657 336.053 817.657 343.196V344.727C817.657 348.256 818.21 351.487 819.358 354.421C820.591 357.27 822.291 359.693 824.46 361.734C826.586 363.775 829.094 365.391 831.943 366.496C834.749 367.516 837.938 368.027 841.467 368.027C844.741 368.027 847.802 367.516 850.651 366.496C853.584 365.391 856.135 363.86 858.304 361.904C860.557 359.863 862.301 357.482 863.576 354.761C864.809 352.04 865.447 348.979 865.447 345.577V344.047Z"></path>
<path fill="#1a1a2e" d="M970.113 378.741V357.312C965.904 365.05 960.929 370.875 955.147 374.83C949.449 378.699 942.604 380.612 934.568 380.612C925.257 380.612 918.156 378.231 913.309 373.469C908.547 368.622 906.166 362.159 906.166 354.081V310.373H923.683V351.02C923.683 362.584 929.721 368.367 941.881 368.367C945.155 368.367 948.386 367.644 951.575 366.156C954.849 364.583 957.74 362.499 960.249 359.863C962.715 357.27 964.713 354.166 966.201 350.509C967.774 346.895 968.582 343.026 968.582 338.945V310.373H985.929V378.741H970.113Z"></path>
<path fill="#1a1a2e" d="M1009.21 298.468V284.522H1025.88V298.468H1009.21ZM1008.7 378.741V310.373H1026.39V378.741H1008.7Z"></path>
<path fill="#1a1a2e" d="M1134.07 344.727C1134.07 349.404 1133.05 353.868 1131 358.163C1129.05 362.372 1126.41 366.071 1123.01 369.217C1119.61 372.406 1115.61 375 1111.11 377.04C1106.68 378.954 1102.01 379.932 1097.16 379.932C1090.7 379.932 1085.09 378.954 1080.32 377.04C1075.56 375 1071.39 371.938 1067.91 367.857V400H1051.24V310.373H1062.98L1065.87 325.509C1066.97 323.043 1068.63 320.747 1070.8 318.706C1072.93 316.58 1075.43 314.752 1078.28 313.264C1081.09 311.691 1084.15 310.458 1087.47 309.522C1090.87 308.629 1094.31 308.162 1097.84 308.162C1103.16 308.162 1108.04 309.14 1112.47 311.053C1116.89 312.881 1120.67 315.432 1123.86 318.706C1127.14 321.895 1129.64 325.636 1131.34 329.931C1133.13 334.14 1134.07 338.604 1134.07 343.366V344.727ZM1116.72 342.856C1116.72 336.053 1114.55 330.569 1110.26 326.359C1105.92 322.065 1100.22 319.897 1093.08 319.897C1089.55 319.897 1086.32 320.534 1083.38 321.767C1080.54 322.915 1077.98 324.573 1075.73 326.699C1073.56 328.74 1071.86 331.291 1070.63 334.353C1069.48 337.329 1068.93 340.603 1068.93 344.217V345.747C1068.93 349.404 1069.61 352.635 1070.97 355.441C1072.42 358.163 1074.29 360.501 1076.58 362.414C1078.96 364.243 1081.56 365.646 1084.41 366.666C1087.34 367.602 1090.23 368.027 1093.08 368.027C1100.22 368.027 1105.92 365.986 1110.26 361.904C1114.55 357.822 1116.72 352.21 1116.72 345.067V342.856Z"></path>
<path fill="#1a1a2e" d="M1259.75 378.741V338.094C1259.75 332.439 1258.82 328.145 1257.03 325.169C1255.33 322.235 1251.93 320.747 1246.83 320.747C1243.43 320.747 1240.28 321.725 1237.47 323.638C1234.75 325.594 1232.37 328.06 1230.33 331.121C1228.37 334.098 1226.84 337.414 1225.74 341.156C1224.59 344.897 1224.04 348.469 1224.04 351.87V378.741H1206.52V338.094C1206.52 332.439 1205.58 328.145 1203.8 325.169C1202.1 322.235 1198.7 320.747 1193.59 320.747C1190.28 320.747 1187.22 321.725 1184.41 323.638C1181.69 325.594 1179.31 328.06 1177.27 331.121C1175.23 334.098 1173.61 337.414 1172.51 341.156C1171.49 344.897 1170.98 348.469 1170.98 351.87V378.741H1153.29V310.373H1169.44V331.802C1171.7 327.38 1174.04 323.723 1176.42 320.747C1178.88 317.686 1181.43 315.262 1184.07 313.434C1186.66 311.648 1189.43 310.33 1192.4 309.522C1195.34 308.757 1198.36 308.332 1201.42 308.332C1204.35 308.332 1207.07 308.97 1209.58 310.203C1212.17 311.351 1214.39 312.924 1216.21 314.965C1218.13 316.92 1219.7 319.174 1220.98 321.767C1222.34 324.404 1223.19 327.125 1223.53 329.931C1227.61 322.448 1232.2 317.005 1237.3 313.604C1242.4 310.118 1248.23 308.332 1254.82 308.332C1258.77 308.332 1262.18 309.097 1265.02 310.543C1267.83 311.903 1270.13 313.859 1271.83 316.325C1273.61 318.834 1274.97 321.767 1275.91 325.169C1276.8 328.485 1277.27 331.929 1277.27 335.543V378.741H1259.75Z"></path>
<path fill="#1a1a2e" d="M1312.34 346.938V347.278C1312.34 350.254 1312.94 353.018 1314.21 355.611C1315.57 358.12 1317.36 360.288 1319.66 362.074C1322.04 363.902 1324.84 365.391 1328.16 366.496C1331.43 367.516 1334.96 368.027 1338.7 368.027C1341.85 368.027 1344.7 367.814 1347.21 367.346C1349.67 366.921 1352.01 366.283 1354.18 365.476C1356.31 364.71 1358.35 363.69 1360.3 362.414C1362.34 361.054 1364.38 359.608 1366.43 357.992L1375.1 366.156C1370.21 370.833 1364.81 374.277 1358.94 376.53C1353.03 378.784 1345.85 379.932 1337.34 379.932C1331.43 379.932 1325.95 379.124 1320.85 377.551C1315.74 375.85 1311.32 373.469 1307.58 370.408C1303.84 367.346 1300.82 363.732 1298.57 359.523C1296.4 355.229 1295.34 350.594 1295.34 345.577V344.217C1295.34 339.455 1296.23 334.863 1298.06 330.441C1299.97 326.019 1302.69 322.192 1306.22 318.876C1309.83 315.602 1314.13 313.009 1319.15 311.053C1324.25 309.14 1329.9 308.162 1336.15 308.162C1342.62 308.162 1348.31 309.14 1353.33 311.053C1358.43 312.881 1362.73 315.475 1366.26 318.876C1369.87 322.192 1372.59 326.019 1374.42 330.441C1376.33 334.863 1377.31 339.625 1377.31 344.727V346.938H1312.34ZM1360.47 337.414C1360.47 335.501 1359.83 333.502 1358.6 331.461C1357.45 329.335 1355.8 327.38 1353.67 325.679C1351.5 323.978 1348.95 322.618 1346.02 321.597C1343.04 320.492 1339.89 319.897 1336.49 319.897C1332.96 319.897 1329.73 320.407 1326.8 321.427C1323.82 322.363 1321.27 323.638 1319.15 325.339C1317.1 326.954 1315.49 328.825 1314.38 330.951C1313.24 332.992 1312.68 335.16 1312.68 337.414V337.584H1360.47V337.414Z"></path>
<path fill="#1a1a2e" d="M1458.56 378.741V338.094C1458.56 332.312 1457.24 328.018 1454.65 325.169C1452.01 322.235 1447.76 320.747 1441.9 320.747C1438.58 320.747 1435.26 321.597 1431.86 323.298C1428.54 324.999 1425.57 327.295 1422.85 330.101C1420.13 332.95 1417.92 336.308 1416.21 340.135C1414.51 343.877 1413.66 347.788 1413.66 351.87V378.741H1395.98V310.373H1412.13V333.502C1416.64 324.659 1422.04 318.281 1428.29 314.284C1434.62 310.33 1441.64 308.332 1449.38 308.332C1453.55 308.332 1457.29 309.012 1460.6 310.373C1464 311.733 1466.77 313.689 1468.94 316.155C1471.19 318.536 1472.93 321.427 1474.21 324.829C1475.44 328.145 1476.08 331.717 1476.08 335.543V378.741H1458.56Z"></path>
<path fill="#1a1a2e" d="M1524.61 321.768V357.823C1524.61 361.692 1525.46 365.476 1527.16 369.217C1528.94 372.874 1531.5 376.02 1534.81 378.741H1514.4C1511.89 376.488 1510.02 373.597 1508.79 370.068C1507.64 366.454 1507.09 362.372 1507.09 357.823V321.768H1492.29V310.373H1507.09V298.468L1524.61 292.345V310.373H1542.8V321.768H1524.61Z"></path>
<defs>
<linearGradient gradientUnits="userSpaceOnUse" y2="269.944" x2="535.374" y1="269.944" x1="197.993" id="paint0_linear_5_278">
<stop stop-color="#FFDE00"></stop>
<stop stop-color="#FFDE00" offset="0.0078125"></stop>
<stop stop-color="#FFDD00" offset="0.0117188"></stop>
<stop stop-color="#FFDC00" offset="0.015625"></stop>
<stop stop-color="#FFDC00" offset="0.0195313"></stop>
<stop stop-color="#FFDB00" offset="0.0234375"></stop>
<stop stop-color="#FFDB00" offset="0.0273438"></stop>
<stop stop-color="#FFDA00" offset="0.03125"></stop>
<stop stop-color="#FFDA00" offset="0.0351562"></stop>
<stop stop-color="#FFD900" offset="0.0390625"></stop>
<stop stop-color="#FFD800" offset="0.0429688"></stop>
<stop stop-color="#FFD800" offset="0.046875"></stop>
<stop stop-color="#FFD700" offset="0.0507813"></stop>
<stop stop-color="#FFD700" offset="0.0546875"></stop>
<stop stop-color="#FFD600" offset="0.0585938"></stop>
<stop stop-color="#FFD600" offset="0.0625"></stop>
<stop stop-color="#FFD500" offset="0.0664063"></stop>
<stop stop-color="#FFD500" offset="0.0703125"></stop>
<stop stop-color="#FFD400" offset="0.0742188"></stop>
<stop stop-color="#FFD400" offset="0.078125"></stop>
<stop stop-color="#FFD300" offset="0.0820313"></stop>
<stop stop-color="#FFD300" offset="0.0859375"></stop>
<stop stop-color="#FFD200" offset="0.0898438"></stop>
<stop stop-color="#FFD200" offset="0.09375"></stop>
<stop stop-color="#FFD100" offset="0.0976563"></stop>
<stop stop-color="#FFD100" offset="0.101563"></stop>
<stop stop-color="#FFD000" offset="0.105469"></stop>
<stop stop-color="#FFD000" offset="0.109375"></stop>
<stop stop-color="#FFCF00" offset="0.113281"></stop>
<stop stop-color="#FFCF00" offset="0.117188"></stop>
<stop stop-color="#FFCE00" offset="0.121094"></stop>
<stop stop-color="#FFCD00" offset="0.125"></stop>
<stop stop-color="#FFCD00" offset="0.128906"></stop>
<stop stop-color="#FFCC00" offset="0.132813"></stop>
<stop stop-color="#FFCC00" offset="0.136719"></stop>
<stop stop-color="#FFCB00" offset="0.140625"></stop>
<stop stop-color="#FFCB00" offset="0.144531"></stop>
<stop stop-color="#FFCA00" offset="0.148438"></stop>
<stop stop-color="#FFCA00" offset="0.152344"></stop>
<stop stop-color="#FFC900" offset="0.15625"></stop>
<stop stop-color="#FFC900" offset="0.160156"></stop>
<stop stop-color="#FFC800" offset="0.164063"></stop>
<stop stop-color="#FFC800" offset="0.167969"></stop>
<stop stop-color="#FFC700" offset="0.171875"></stop>
<stop stop-color="#FFC700" offset="0.175781"></stop>
<stop stop-color="#FFC600" offset="0.179688"></stop>
<stop stop-color="#FFC600" offset="0.183594"></stop>
<stop stop-color="#FFC500" offset="0.1875"></stop>
<stop stop-color="#FFC500" offset="0.191406"></stop>
<stop stop-color="#FFC400" offset="0.195313"></stop>
<stop stop-color="#FFC400" offset="0.199219"></stop>
<stop stop-color="#FFC300" offset="0.203125"></stop>
<stop stop-color="#FFC300" offset="0.207031"></stop>
<stop stop-color="#FFC200" offset="0.210938"></stop>
<stop stop-color="#FFC100" offset="0.214844"></stop>
<stop stop-color="#FFC100" offset="0.21875"></stop>
<stop stop-color="#FFC000" offset="0.222656"></stop>
<stop stop-color="#FFC000" offset="0.226563"></stop>
<stop stop-color="#FFBF00" offset="0.230469"></stop>
<stop stop-color="#FFBF00" offset="0.234375"></stop>
<stop stop-color="#FFBE00" offset="0.238281"></stop>
<stop stop-color="#FFBE00" offset="0.242188"></stop>
<stop stop-color="#FEBD00" offset="0.246094"></stop>
<stop stop-color="#FEBD00" offset="0.25"></stop>
<stop stop-color="#FEBC00" offset="0.253906"></stop>
<stop stop-color="#FEBC00" offset="0.257813"></stop>
<stop stop-color="#FEBB00" offset="0.261719"></stop>
<stop stop-color="#FEBB00" offset="0.265625"></stop>
<stop stop-color="#FEBA00" offset="0.269531"></stop>
<stop stop-color="#FEBA00" offset="0.273438"></stop>
<stop stop-color="#FEB900" offset="0.277344"></stop>
<stop stop-color="#FEB900" offset="0.28125"></stop>
<stop stop-color="#FEB800" offset="0.285156"></stop>
<stop stop-color="#FEB800" offset="0.289063"></stop>
<stop stop-color="#FEB700" offset="0.292969"></stop>
<stop stop-color="#FEB600" offset="0.296875"></stop>
<stop stop-color="#FEB600" offset="0.300781"></stop>
<stop stop-color="#FEB500" offset="0.304688"></stop>
<stop stop-color="#FEB500" offset="0.308594"></stop>
<stop stop-color="#FEB400" offset="0.3125"></stop>
<stop stop-color="#FEB400" offset="0.316406"></stop>
<stop stop-color="#FEB300" offset="0.320313"></stop>
<stop stop-color="#FEB300" offset="0.324219"></stop>
<stop stop-color="#FEB200" offset="0.328125"></stop>
<stop stop-color="#FEB200" offset="0.332031"></stop>
<stop stop-color="#FEB100" offset="0.335938"></stop>
<stop stop-color="#FEB100" offset="0.339844"></stop>
<stop stop-color="#FEB000" offset="0.34375"></stop>
<stop stop-color="#FEB000" offset="0.347656"></stop>
<stop stop-color="#FEAF00" offset="0.351563"></stop>
<stop stop-color="#FEAF00" offset="0.355469"></stop>
<stop stop-color="#FEAE00" offset="0.359375"></stop>
<stop stop-color="#FEAE00" offset="0.363281"></stop>
<stop stop-color="#FEAD00" offset="0.367188"></stop>
<stop stop-color="#FEAD00" offset="0.371094"></stop>
<stop stop-color="#FEAC00" offset="0.375"></stop>
<stop stop-color="#FEAB00" offset="0.378906"></stop>
<stop stop-color="#FEAB00" offset="0.382812"></stop>
<stop stop-color="#FEAA00" offset="0.386719"></stop>
<stop stop-color="#FEAA00" offset="0.390625"></stop>
<stop stop-color="#FEA900" offset="0.394531"></stop>
<stop stop-color="#FEA900" offset="0.398438"></stop>
<stop stop-color="#FEA800" offset="0.402344"></stop>
<stop stop-color="#FEA800" offset="0.40625"></stop>
<stop stop-color="#FEA700" offset="0.410156"></stop>
<stop stop-color="#FEA700" offset="0.414063"></stop>
<stop stop-color="#FEA600" offset="0.417969"></stop>
<stop stop-color="#FEA600" offset="0.421875"></stop>
<stop stop-color="#FEA500" offset="0.425781"></stop>
<stop stop-color="#FEA500" offset="0.429688"></stop>
<stop stop-color="#FEA400" offset="0.433594"></stop>
<stop stop-color="#FEA400" offset="0.4375"></stop>
<stop stop-color="#FEA300" offset="0.441406"></stop>
<stop stop-color="#FEA300" offset="0.445313"></stop>
<stop stop-color="#FEA200" offset="0.449219"></stop>
<stop stop-color="#FEA200" offset="0.453125"></stop>
<stop stop-color="#FEA100" offset="0.457031"></stop>
<stop stop-color="#FEA000" offset="0.460938"></stop>
<stop stop-color="#FEA000" offset="0.464844"></stop>
<stop stop-color="#FE9F00" offset="0.46875"></stop>
<stop stop-color="#FE9F00" offset="0.472656"></stop>
<stop stop-color="#FE9E00" offset="0.476562"></stop>
<stop stop-color="#FE9E00" offset="0.480469"></stop>
<stop stop-color="#FE9D00" offset="0.484375"></stop>
<stop stop-color="#FE9D00" offset="0.488281"></stop>
<stop stop-color="#FE9C00" offset="0.492188"></stop>
<stop stop-color="#FE9C00" offset="0.496094"></stop>
<stop stop-color="#FE9B00" offset="0.5"></stop>
<stop stop-color="#FE9B00" offset="0.503906"></stop>
<stop stop-color="#FE9A00" offset="0.507812"></stop>
<stop stop-color="#FE9A00" offset="0.511719"></stop>
<stop stop-color="#FE9900" offset="0.515625"></stop>
<stop stop-color="#FE9900" offset="0.519531"></stop>
<stop stop-color="#FE9800" offset="0.523438"></stop>
<stop stop-color="#FE9800" offset="0.527344"></stop>
<stop stop-color="#FE9700" offset="0.53125"></stop>
<stop stop-color="#FE9700" offset="0.535156"></stop>
<stop stop-color="#FE9600" offset="0.539063"></stop>
<stop stop-color="#FE9600" offset="0.542969"></stop>
<stop stop-color="#FE9500" offset="0.546875"></stop>
<stop stop-color="#FE9400" offset="0.550781"></stop>
<stop stop-color="#FE9400" offset="0.554688"></stop>
<stop stop-color="#FE9300" offset="0.558594"></stop>
<stop stop-color="#FE9300" offset="0.5625"></stop>
<stop stop-color="#FE9200" offset="0.566406"></stop>
<stop stop-color="#FE9200" offset="0.570312"></stop>
<stop stop-color="#FE9100" offset="0.574219"></stop>
<stop stop-color="#FE9100" offset="0.578125"></stop>
<stop stop-color="#FE9000" offset="0.582031"></stop>
<stop stop-color="#FE9000" offset="0.585938"></stop>
<stop stop-color="#FE8F00" offset="0.589844"></stop>
<stop stop-color="#FE8F00" offset="0.59375"></stop>
<stop stop-color="#FE8E00" offset="0.597656"></stop>
<stop stop-color="#FE8E00" offset="0.601562"></stop>
<stop stop-color="#FE8D00" offset="0.605469"></stop>
<stop stop-color="#FE8D00" offset="0.609375"></stop>
<stop stop-color="#FE8C00" offset="0.613281"></stop>
<stop stop-color="#FE8C00" offset="0.617188"></stop>
<stop stop-color="#FE8B00" offset="0.621094"></stop>
<stop stop-color="#FE8B00" offset="0.625"></stop>
<stop stop-color="#FE8A00" offset="0.628906"></stop>
<stop stop-color="#FE8900" offset="0.632813"></stop>
<stop stop-color="#FE8900" offset="0.636719"></stop>
<stop stop-color="#FE8800" offset="0.640625"></stop>
<stop stop-color="#FE8800" offset="0.644531"></stop>
<stop stop-color="#FE8700" offset="0.648438"></stop>
<stop stop-color="#FE8700" offset="0.652344"></stop>
<stop stop-color="#FE8600" offset="0.65625"></stop>
<stop stop-color="#FE8600" offset="0.660156"></stop>
<stop stop-color="#FE8500" offset="0.664062"></stop>
<stop stop-color="#FE8500" offset="0.667969"></stop>
<stop stop-color="#FE8400" offset="0.671875"></stop>
<stop stop-color="#FE8400" offset="0.675781"></stop>
<stop stop-color="#FE8300" offset="0.679688"></stop>
<stop stop-color="#FE8300" offset="0.683594"></stop>
<stop stop-color="#FE8200" offset="0.6875"></stop>
<stop stop-color="#FE8200" offset="0.691406"></stop>
<stop stop-color="#FE8100" offset="0.695312"></stop>
<stop stop-color="#FE8100" offset="0.699219"></stop>
<stop stop-color="#FE8000" offset="0.703125"></stop>
<stop stop-color="#FE8000" offset="0.707031"></stop>
<stop stop-color="#FE7F00" offset="0.710938"></stop>
<stop stop-color="#FE7E00" offset="0.714844"></stop>
<stop stop-color="#FE7E00" offset="0.71875"></stop>
<stop stop-color="#FE7D00" offset="0.722656"></stop>
<stop stop-color="#FE7D00" offset="0.726563"></stop>
<stop stop-color="#FE7C00" offset="0.730469"></stop>
<stop stop-color="#FD7C00" offset="0.734375"></stop>
<stop stop-color="#FD7B00" offset="0.738281"></stop>
<stop stop-color="#FD7B00" offset="0.742188"></stop>
<stop stop-color="#FD7A00" offset="0.746094"></stop>
<stop stop-color="#FD7A00" offset="0.75"></stop>
<stop stop-color="#FD7900" offset="0.753906"></stop>
<stop stop-color="#FD7900" offset="0.757812"></stop>
<stop stop-color="#FD7800" offset="0.761719"></stop>
<stop stop-color="#FD7800" offset="0.765625"></stop>
<stop stop-color="#FD7700" offset="0.769531"></stop>
<stop stop-color="#FD7700" offset="0.773437"></stop>
<stop stop-color="#FD7600" offset="0.777344"></stop>
<stop stop-color="#FD7600" offset="0.78125"></stop>
<stop stop-color="#FD7500" offset="0.785156"></stop>
<stop stop-color="#FD7500" offset="0.789062"></stop>
<stop stop-color="#FD7400" offset="0.792969"></stop>
<stop stop-color="#FD7400" offset="0.796875"></stop>
<stop stop-color="#FD7300" offset="0.800781"></stop>
<stop stop-color="#FD7200" offset="0.804688"></stop>
<stop stop-color="#FD7200" offset="0.808594"></stop>
<stop stop-color="#FD7100" offset="0.8125"></stop>
<stop stop-color="#FD7100" offset="0.816406"></stop>
<stop stop-color="#FD7000" offset="0.820312"></stop>
<stop stop-color="#FD7000" offset="0.824219"></stop>
<stop stop-color="#FD6F00" offset="0.828125"></stop>
<stop stop-color="#FD6F00" offset="0.832031"></stop>
<stop stop-color="#FD6E00" offset="0.835938"></stop>
<stop stop-color="#FD6E00" offset="0.839844"></stop>
<stop stop-color="#FD6D00" offset="0.84375"></stop>
<stop stop-color="#FD6D00" offset="0.847656"></stop>
<stop stop-color="#FD6C00" offset="0.851562"></stop>
<stop stop-color="#FD6C00" offset="0.855469"></stop>
<stop stop-color="#FD6B00" offset="0.859375"></stop>
<stop stop-color="#FD6B00" offset="0.863281"></stop>
<stop stop-color="#FD6A00" offset="0.867187"></stop>
<stop stop-color="#FD6A00" offset="0.871094"></stop>
<stop stop-color="#FD6900" offset="0.875"></stop>
<stop stop-color="#FD6900" offset="0.878906"></stop>
<stop stop-color="#FD6800" offset="0.882812"></stop>
<stop stop-color="#FD6700" offset="0.886719"></stop>
<stop stop-color="#FD6700" offset="0.890625"></stop>
<stop stop-color="#FD6600" offset="0.894531"></stop>
<stop stop-color="#FD6600" offset="0.898438"></stop>
<stop stop-color="#FD6500" offset="0.902344"></stop>
<stop stop-color="#FD6500" offset="0.90625"></stop>
<stop stop-color="#FD6400" offset="0.910156"></stop>
<stop stop-color="#FD6400" offset="0.914062"></stop>
<stop stop-color="#FD6300" offset="0.917969"></stop>
<stop stop-color="#FD6300" offset="0.921875"></stop>
<stop stop-color="#FD6200" offset="0.925781"></stop>
<stop stop-color="#FD6200" offset="0.929688"></stop>
<stop stop-color="#FD6100" offset="0.933594"></stop>
<stop stop-color="#FD6100" offset="0.9375"></stop>
<stop stop-color="#FD6000" offset="0.941406"></stop>
<stop stop-color="#FD6000" offset="0.945312"></stop>
<stop stop-color="#FD5F00" offset="0.949219"></stop>
<stop stop-color="#FD5F00" offset="0.953125"></stop>
<stop stop-color="#FD5E00" offset="0.957031"></stop>
<stop stop-color="#FD5E00" offset="0.960937"></stop>
<stop stop-color="#FD5D00" offset="0.964844"></stop>
<stop stop-color="#FD5C00" offset="0.96875"></stop>
<stop stop-color="#FD5C00" offset="0.972656"></stop>
<stop stop-color="#FD5B00" offset="0.976562"></stop>
<stop stop-color="#FD5B00" offset="0.980469"></stop>
<stop stop-color="#FD5A00" offset="0.984375"></stop>
<stop stop-color="#FD5A00" offset="0.988281"></stop>
<stop stop-color="#FD5900" offset="0.992188"></stop>
<stop stop-color="#FD5900" offset="1"></stop>
</linearGradient>
</defs>
</svg>
