<svg width="976" height="342" viewBox="0 0 976 342" fill="none" xmlns="http://www.w3.org/2000/svg">
<path d="M766.108 2.03033C776.022 1.32267 787.866 2.29353 797.736 3.55581L797.734 117.284C808.864 107.773 820.193 98.4328 831.085 88.6529C850.226 71.4682 911.719 12.4408 931.161 5.09116C943.892 0.278314 959.177 2.05237 972.546 2.67433L972.945 55.3389C972.969 64.7062 973.756 88.5011 970.248 95.465C965.818 104.261 943.573 121.98 935.643 128.586C935.542 106.018 934.56 73.6818 936.042 51.8814C922.233 61.4679 907.489 74.922 894.811 86.1137L841.771 133.023C829.878 143.536 810.621 163.098 795.67 166.61C794.402 166.735 793.13 166.808 791.856 166.829C756.352 167.271 760.804 129.366 760.684 104.217L760.405 54.4953C746.821 63.1048 731.309 77.465 719.214 88.2782L670.861 131.644C660.741 140.725 651.843 148.901 640.584 156.971C624.838 168.256 603.964 173.89 591.296 154.944C581.478 140.261 583.932 119.974 583.507 103.248C583.331 96.3221 583.166 88.2219 584.308 81.3926C586.506 69.7664 597.909 61.9086 606.225 54.472C609.845 51.2349 616.072 45.8001 620.091 43.2486C620.332 68.1184 620.046 93.0666 620.496 117.939C628.921 110.134 640.619 100.949 649.631 93.4143C663.777 81.5077 677.845 69.5093 691.835 57.4202C702.103 48.643 712.297 39.7789 722.414 30.8278C735.449 19.3375 748.553 5.51477 766.108 2.03033Z" fill="#112233"/>
<path d="M140.351 237.163L168.785 237.31C166.429 245.673 163.569 254.04 160.839 262.302C153.734 287.048 144 315.44 135.877 340.083L104.827 340.046C97.4688 319.532 91.6734 298.335 84.3651 277.674C79.2257 297.233 71.0533 320.521 64.6753 339.892C54.6633 340.203 43.4445 339.955 33.3394 339.958C24.3458 315.144 17.264 289.093 8.57385 264.112C5.58616 255.524 2.45159 246.181 0 237.435L29.8316 237.329C37.2219 257.058 44.2474 282.331 50.4235 302.805C58.0084 281.102 65.1722 259.255 71.9113 237.274L98.8274 237.31L119.369 302.919C126.938 281.715 133.79 258.716 140.351 237.163Z" fill="#F7BC0D"/>
<path d="M520.023 235.596C532.994 233.134 552.002 238.232 562.612 245.803C573.679 253.662 581.124 265.64 583.273 279.045C585.727 293.198 582.349 307.743 573.909 319.364C564.318 332.419 551.199 338.907 535.519 341.396C519.108 342.995 504.443 340.734 491.07 330.481C479.544 321.763 472.025 308.759 470.217 294.417C465.962 261.498 488.64 239.499 520.023 235.596ZM531.672 316.476C541.801 314.766 550.224 307.732 553.713 298.07C557.204 288.406 555.221 277.612 548.524 269.822C541.827 262.031 531.454 258.452 521.38 260.455C506.112 263.491 496.111 278.226 498.924 293.54C501.738 308.852 516.324 319.068 531.672 316.476Z" fill="#112233"/>
<path d="M651.994 237.034C663.223 236.845 674.734 237.322 685.85 238.686C712.86 242 727.387 271.993 712.115 294.717C708.279 300.425 703.727 303.552 698.104 307.312C705.786 318.701 712.585 328.597 719.866 340.262C713.27 340.136 692.701 341.642 688.371 338.548C682.773 330.718 676.674 320.727 671.141 312.496L654.877 312.462C654.997 321.628 654.799 331.15 654.732 340.343C645.449 339.883 635.124 340.092 625.756 340.095L625.805 237.399C634.535 237.322 643.264 237.201 651.994 237.034ZM654.734 290.41C664.973 290.52 676.119 291.576 685.041 285.932C688.579 281.452 689.665 278.697 688.914 272.835C686.955 257.533 665.652 259.74 654.783 260.003L654.734 290.41Z" fill="#112233"/>
<path d="M330.346 237.359C338.574 237.245 346.58 237.075 354.805 237.441C359.072 241.97 364.817 249.433 369.017 254.526L399.81 291.898C399.589 273.732 399.563 255.563 399.733 237.397C408.89 237.162 418.87 237.383 428.089 237.407C428.059 248.784 429.529 335.879 427.21 339.982L404.596 339.983C389.857 323.918 372.979 301.334 358.601 284.29C358.245 301.444 359.055 322.556 359.105 340.249C349.696 339.982 340.282 339.959 330.872 340.18C330.062 306.786 330.453 270.998 330.346 237.359Z" fill="#112233"/>
<path d="M877.599 237.354C887.406 237.197 897.217 237.196 907.024 237.349C907.197 250.078 906.919 263.269 906.801 276.042C917.944 276.018 936.182 275.475 946.744 276.317C946.852 263.349 946.82 250.38 946.649 237.413C956.058 237.205 965.875 237.326 975.319 237.306C975.456 271.322 975.419 305.339 975.208 339.355L974.057 339.998L946.992 340.053C946.579 326.712 946.579 313.359 946.99 300.018C934.273 299.545 919.698 299.816 906.84 299.787C907.153 313.146 906.825 327.005 906.688 340.4C897.177 340.201 887.313 340.336 877.775 340.341L877.599 237.354Z" fill="#112233"/>
<path d="M205.701 237.447C231.272 236.781 260.308 237.294 286.108 237.474C286.244 244.931 286.131 252.684 286.126 260.166C269.107 259.923 251.586 259.883 234.579 259.949L234.598 277.375C249.186 276.611 265.222 276.814 279.943 276.76L280.013 298.812L234.67 298.863C234.533 305.008 234.521 311.154 234.633 317.299L288.154 317.256C288.399 324.705 288.287 332.854 288.333 340.359C260.987 340.549 232.867 339.841 205.696 340.374C206.043 306.281 205.704 271.59 205.701 237.447Z" fill="#F7BC0D"/>
<path d="M748.935 237.367L840.577 237.415L840.562 260.723L809.543 260.624L809.445 308.671L809.438 340.01L780.563 340.095L780.552 260.8C770.854 260.38 758.931 260.74 749.07 260.772L748.935 237.367Z" fill="#112233"/>
<path d="M586.287 0.0958757C597.415 -0.11226 609.02 0.0726239 620.183 0.144859C620.351 6.1 620.265 11.9609 620.205 17.9148C615.512 22.6028 606.798 29.5533 601.5 34.0466C595.882 39.1655 587.668 45.4916 581.634 50.4354C581.115 37.673 580.525 24.2703 581.561 11.5287C581.946 6.77584 582.55 3.16527 586.287 0.0958757Z" fill="#F7BC0D"/>
<path d="M972.191 117.418L973.021 118.339C974.364 127.252 974.134 155.67 970.451 163.621C966.312 167.274 942.763 165.984 936.143 165.929C933.727 164.407 934.682 152.011 934.753 148.854C943.379 139.366 961.788 125.618 972.191 117.418Z" fill="#F7BC0D"/>
</svg>
