<svg width="709" height="248" viewBox="0 0 709 248" fill="none" xmlns="http://www.w3.org/2000/svg">
<path d="M557.662 1.12905C563.13 0.707065 574.2 1.12107 579.494 2.35238L579.475 85.442C589.761 76.4674 599.926 67.3543 609.967 58.1061C624.084 45.1525 660.849 9.30762 676.861 3.44067C686.114 0.0505609 696.717 1.28542 706.389 1.65854C706.39 12.8603 706.494 24.062 706.701 35.2611C707.258 72.9743 707.898 69.4714 679.51 93.4713C679.355 76.5918 678.471 53.2786 680.003 37.2565C668.795 44.6443 659.473 53.3701 649.49 62.2932L618.499 90.1229C607.525 100.089 591.772 115.912 578.11 121.127C554.636 122.8 552.166 104.805 552.387 85.5477C552.565 70.0524 552.43 54.4389 552.277 38.9364C543.305 44.4231 532.923 54.3162 525.024 61.474L491.728 91.6376C479.865 102.353 460.597 123.117 443.478 121.144C433.791 120.027 426.859 112.159 425.563 102.632C423.827 89.876 423.396 75.6644 424.218 62.7871C425.257 48.8065 440.187 38.9568 450.49 31.4393L450.592 85.7334C470.979 68.7518 490.767 50.8542 511.099 33.8272C525.208 22.0107 539.23 4.86741 557.662 1.12905Z" fill="#FEFEFE"/>
<path d="M101.804 172.289L122.449 172.319L116.38 191.676L98.5351 246.899C91.0889 246.857 83.5209 246.97 76.064 247.011C71.6124 231.784 66.8445 216.652 61.7627 201.624C57.1413 213.347 51.1991 234.316 47.1218 246.899L24.344 247.002C17.6969 223.709 7.79733 195.438 0 172.348L21.7991 172.297C27.5191 187.597 31.8764 203.99 36.8907 219.592C41.7769 208.739 48.5929 184.692 52.3689 172.413C58.6684 172.273 65.232 172.335 71.5538 172.303C76.9582 187.828 81.28 204.027 86.8942 219.664C92.2178 204.467 97.1689 187.742 101.804 172.289Z" fill="#F5BA1C"/>
<path d="M377.716 171.091C388.148 169.818 399.813 172.242 408.491 178.31C416.729 184.074 422.278 192.926 423.874 202.848C425.593 213.006 423.167 223.429 417.139 231.786C409.904 241.719 400.305 245.867 388.523 247.782C377.152 248.571 367.052 247.111 357.556 240.333C349.006 234.199 343.289 224.879 341.697 214.481C337.981 190.277 354.75 174.158 377.716 171.091ZM403.019 204.81C400.503 193.597 389.319 186.586 378.124 189.205C367.076 191.789 360.174 202.786 362.654 213.851C365.136 224.916 376.075 231.917 387.169 229.541C398.412 227.134 405.533 216.024 403.019 204.81Z" fill="#FEFEFE"/>
<path d="M472.265 172.172C487.121 172.085 507.619 170.693 517.175 184.213C521.217 190.03 522.738 197.23 521.393 204.183C519.625 213.449 514.682 218.021 507.271 222.976C512.081 230.865 517.891 238.988 522.959 246.875C519.45 246.895 502.136 247.506 500.319 246.123C495.908 239.533 491.804 232.747 487.021 226.431C483.357 226.428 479.582 226.53 475.909 226.581L475.886 246.863L454.887 247.07L454.495 172.419L472.265 172.172ZM497.022 192.003C491.423 188.016 482.514 188.128 475.964 188.633C475.865 195.994 475.845 203.357 475.902 210.719C483.176 210.899 491.123 211.539 497.521 207.531C501.718 202.367 502.994 196.255 497.022 192.003Z" fill="#FEFEFE"/>
<path d="M240.26 172.344L258.112 172.321L290.505 211.955C290.395 198.744 290.383 185.535 290.47 172.324L311.365 172.338C311.325 197.479 311.822 221.444 311.245 246.688C309.204 247.09 296.81 246.899 293.926 246.885C282.605 234.147 272.113 220.089 260.926 207.018C260.772 220.107 261.106 233.724 261.111 246.879L240.46 246.969L240.26 172.344Z" fill="#FEFEFE"/>
<path d="M637.323 172.336L658.448 172.351L658.543 200.394L687.377 200.408L687.357 172.409L708.372 172.349C708.37 181.189 708.935 244.854 707.772 246.851L687.428 246.886L687.424 217.343C678.337 216.907 667.632 217.213 658.467 217.336L658.535 246.876L637.38 246.878L637.323 172.336Z" fill="#FEFEFE"/>
<path d="M149.444 172.409L207.525 172.313L207.723 188.88C195.301 188.904 182.88 188.856 170.46 188.735L170.461 200.866L203.389 200.864L203.376 216.84L170.605 216.881C170.248 221.005 170.396 226.373 170.396 230.6C183.249 230.511 196.462 230.735 209.367 230.756L209.358 246.891L149.84 247.156L149.444 172.409Z" fill="#F5BA1C"/>
<path d="M551.157 172.194C570.423 171.628 591.184 172.201 610.541 172.349C610.581 177.871 610.505 183.475 610.48 189.006L587.915 189.012L587.896 231.64L587.883 246.877L566.926 246.875L566.917 188.945L543.989 188.915L543.919 172.354L551.157 172.194Z" fill="#FEFEFE"/>
<path d="M425.739 0.0168069C434.102 -0.0320548 442.467 0.025691 450.829 0.189155L450.9 12.8461C446.118 17.2943 440.97 21.4804 435.944 25.6629L422.482 36.806C422.179 25.3813 420.696 10.148 425.739 0.0168069Z" fill="#F5BA1C"/>
<path d="M705.87 85.9013C709.536 89.2585 706.444 114.371 704.232 119.593C697.115 121.757 687.879 121.201 680.427 120.993L679.856 120.672C678.329 118.136 678.87 111.505 678.937 108.279C686.515 100.68 697.18 92.2409 705.87 85.9013Z" fill="#F5BA1C"/>
</svg>
